<svg id="map-svg" width="1360" height="1000" style="transform: none; backface-visibility: hidden; transform-origin: 50% 50%; cursor: move;"><rect width="320" height="230" x="680" y="200" rx="0" ry="0" class="" style="fill: rgb(232, 221, 194); stroke: rgb(68, 68, 68); stroke-width: 2;"></rect><path d="M200,200L199.99999999999994,208.3333333333333C199.99999999999997,216.66666666666663,199.99999999999997,233.33333333333331,199.99999999999994,252.83333333333331C199.99999999999997,272.3333333333333,199.99999999999997,294.66666666666663,206.66666666666663,305.8333333333333C213.33333333333331,317,226.66666666666666,317,237.77777777777774,316.99999999999994C248.88888888888886,317,257.7777777777777,317,268.88888888888886,316.99999999999994C279.99999999999994,317,293.33333333333326,317,299.99999999999994,322.49999999999994C306.66666666666663,328,306.66666666666663,339,306.6666666666666,352.83333333333326C306.66666666666663,366.66666666666663,306.66666666666663,383.33333333333326,306.6666666666666,398.33333333333326C306.66666666666663,413.33333333333326,306.66666666666663,426.66666666666663,306.6666666666666,449.8333333333333C306.66666666666663,473,306.66666666666663,506,306.6666666666666,529.1666666666666C306.66666666666663,552.3333333333333,306.66666666666663,565.6666666666666,313.33333333333326,572.3333333333333C319.99999999999994,579,333.33333333333326,579,359.7860082304526,579C386.23868312757196,579,425.8106995884773,579,452.2633744855966,579C478.71604938271594,579,492.0493827160493,579,498.716049382716,585.6666666666666C505.3827160493827,592.3333333333333,505.3827160493827,605.6666666666666,505.3827160493826,627.5C505.3827160493827,649.3333333333333,505.3827160493827,679.6666666666666,505.3827160493826,701.5C505.3827160493827,723.3333333333333,505.3827160493827,736.6666666666666,505.3827160493826,743.3333333333334L505.3827160493827,750" class="line-lista primary" style="stroke: rgb(229, 48, 60); stroke-width: 8; stroke-opacity: 0.9; fill: none;" stroke-dasharray="811.6204223632812 811.6204223632812" stroke-dashoffset="4.463912322998006"></path><path d="M212,200L211.99999999999994,206.66666666666663C211.99999999999997,213.33333333333331,211.99999999999997,226.66666666666666,211.99999999999994,245.99999999999997C211.99999999999997,265.3333333333333,211.99999999999997,290.66666666666663,211.99999999999994,310C211.99999999999997,329.3333333333333,211.99999999999997,342.66666666666663,218.66666666666663,349.3333333333333C225.33333333333331,356,238.66666666666666,356,245.55555555555554,355.99999999999994C252.44444444444443,356,252.88888888888886,356,259.7777777777777,355.99999999999994C266.66666666666663,356,280,356,286.66666666666663,362.66666666666663C293.3333333333333,369.3333333333333,293.3333333333333,382.66666666666663,293.3333333333333,391.66666666666663C293.3333333333333,400.66666666666663,293.3333333333333,405.3333333333333,293.3333333333333,414.3333333333333C293.3333333333333,423.3333333333333,293.3333333333333,436.66666666666663,293.3333333333333,451.66666666666663C293.3333333333333,466.66666666666663,293.3333333333333,483.3333333333333,293.3333333333333,500C293.3333333333333,516.6666666666666,293.3333333333333,533.3333333333333,293.3333333333333,550C293.3333333333333,566.6666666666666,293.3333333333333,583.3333333333333,293.3333333333333,591.6666666666666L293.3333333333333,600" class="line-goyes primary" style="stroke: rgb(246, 128, 44); stroke-width: 8; stroke-opacity: 0.9; fill: none;" stroke-dasharray="460.55322265625 460.55322265625" stroke-dashoffset="2.7633193359375023"></path><path d="M429.3333333333333,300L429.33333333333326,302.8333333333333C429.33333333333326,305.66666666666663,429.33333333333326,311.3333333333333,422.66666666666663,314.16666666666663C415.99999999999994,317,402.66666666666663,317,390.88888888888886,316.99999999999994C379.1111111111111,317,368.88888888888886,317,357.1111111111111,316.99999999999994C345.33333333333326,317,331.99999999999994,317,325.33333333333326,322.49999999999994C318.66666666666663,328,318.66666666666663,339,318.6666666666666,352.83333333333326C318.66666666666663,366.66666666666663,318.66666666666663,383.33333333333326,318.6666666666666,403.83333333333326C318.66666666666663,424.33333333333326,318.66666666666663,448.66666666666663,325.33333333333326,460.8333333333333C331.99999999999994,473,345.33333333333326,473,376.90534979423865,472.99999999999994C408.477366255144,473,458.2880658436213,473,489.86008230452666,472.99999999999994C521.432098765432,473,534.7654320987654,473,541.432098765432,479.66666666666663C548.0987654320987,486.3333333333333,548.0987654320987,499.66666666666663,548.0987654320987,530.8333333333333C548.0987654320987,562,548.0987654320987,611,548.0987654320987,642.1666666666666C548.0987654320987,673.3333333333333,548.0987654320987,686.6666666666666,548.0987654320987,693.3333333333333L548.0987654320987,700" class="line-outda primary" style="stroke: rgb(254, 201, 26); stroke-width: 8; stroke-opacity: 0.9; fill: none;" stroke-dasharray="699.6232299804688 699.6232299804688" stroke-dashoffset="4.197739379882816"></path><path d="M305.3333333333333,600L305.3333333333333,608.3333333333334C305.3333333333333,616.6666666666666,305.3333333333333,633.3333333333333,305.3333333333333,645.3333333333333C305.3333333333333,657.3333333333333,305.3333333333333,664.6666666666666,312,668.3333333333334C318.66666666666663,672,332,672,367.79423868312756,672C403.5884773662551,672,461.84362139917687,672,497.6378600823044,672C533.432098765432,672,546.7654320987654,672,553.432098765432,676.6666666666666C560.0987654320987,681.3333333333333,560.0987654320987,690.6666666666666,560.0987654320987,701.3333333333333C560.0987654320987,712,560.0987654320987,724,552.9794238683127,729.9999999999999C545.8600823045267,736,531.6213991769547,736,524.5020576131686,738.3333333333333C517.3827160493827,740.6666666666666,517.3827160493827,745.3333333333333,517.3827160493827,747.6666666666666L517.3827160493827,750" class="line-rialy primary" style="stroke: rgb(69, 168, 68); stroke-width: 8; stroke-opacity: 0.9; fill: none;" stroke-dasharray="415.26727294921875 415.26727294921875" stroke-dashoffset="2.699237274169901"></path><path d="M200,170L200,200" class="line-lista end-line start-line" style="stroke: rgb(170, 170, 170); stroke-width: 2; stroke-opacity: 0.9; fill: none; stroke-dasharray: 2, 2;"></path><path d="M505.3827160493827,750L505.3827160493827,780" class="line-lista end-line" style="stroke: rgb(170, 170, 170); stroke-width: 2; stroke-opacity: 0.9; fill: none; stroke-dasharray: 2, 2;"></path><path d="M212,140L212,200" class="line-goyes end-line start-line" style="stroke: rgb(170, 170, 170); stroke-width: 2; stroke-opacity: 0.9; fill: none; stroke-dasharray: 2, 2;"></path><path d="M293.3333333333333,600L293.3333333333333,630" class="line-goyes end-line" style="stroke: rgb(170, 170, 170); stroke-width: 2; stroke-opacity: 0.9; fill: none; stroke-dasharray: 2, 2;"></path><path d="M429.3333333333333,270L429.3333333333333,300" class="line-outda end-line start-line" style="stroke: rgb(170, 170, 170); stroke-width: 2; stroke-opacity: 0.9; fill: none; stroke-dasharray: 2, 2;"></path><path d="M548.0987654320987,700L548.0987654320987,730" class="line-outda end-line" style="stroke: rgb(170, 170, 170); stroke-width: 2; stroke-opacity: 0.9; fill: none; stroke-dasharray: 2, 2;"></path><path d="M305.3333333333333,540L305.3333333333333,600" class="line-rialy end-line start-line" style="stroke: rgb(170, 170, 170); stroke-width: 2; stroke-opacity: 0.9; fill: none; stroke-dasharray: 2, 2;"></path><path d="M517.3827160493827,750L517.3827160493827,810" class="line-rialy end-line" style="stroke: rgb(170, 170, 170); stroke-width: 2; stroke-opacity: 0.9; fill: none; stroke-dasharray: 2, 2;"></path><path d="M740,290L820,290" class="line-lista legend" style="stroke: rgb(229, 48, 60); stroke-width: 8; stroke-opacity: 0.9; fill: none; stroke-dasharray: none;"></path><path d="M740,320L820,320" class="line-goyes legend" style="stroke: rgb(246, 128, 44); stroke-width: 8; stroke-opacity: 0.9; fill: none; stroke-dasharray: none;"></path><path d="M740,350L820,350" class="line-outda legend" style="stroke: rgb(254, 201, 26); stroke-width: 8; stroke-opacity: 0.9; fill: none; stroke-dasharray: none;"></path><path d="M740,380L820,380" class="line-rialy legend" style="stroke: rgb(69, 168, 68); stroke-width: 8; stroke-opacity: 0.9; fill: none; stroke-dasharray: none;"></path><circle r="4" cx="200" cy="200" class="point-lista station primary" style="fill: rgb(255, 255, 255); stroke: rgb(68, 68, 68); stroke-width: 2;"></circle><circle r="4" cx="200" cy="250" class="point-lista station primary" style="fill: rgb(255, 255, 255); stroke: rgb(68, 68, 68); stroke-width: 2;"></circle><circle r="4" cx="306.66666666666663" cy="350" class="point-lista station primary" style="fill: rgb(255, 255, 255); stroke: rgb(68, 68, 68); stroke-width: 2;"></circle><circle r="4" cx="306.66666666666663" cy="400" class="point-lista station primary" style="fill: rgb(255, 255, 255); stroke: rgb(68, 68, 68); stroke-width: 2;"></circle><circle r="4" cx="505.3827160493827" cy="750" class="point-lista station primary" style="fill: rgb(255, 255, 255); stroke: rgb(68, 68, 68); stroke-width: 2;"></circle><circle r="4" cx="212" cy="200" class="point-goyes station secondary" style="fill: rgb(255, 255, 255); stroke: rgb(68, 68, 68); stroke-width: 2;"></circle><circle r="4" cx="293.3333333333333" cy="450" class="point-goyes station primary" style="fill: rgb(255, 255, 255); stroke: rgb(68, 68, 68); stroke-width: 2;"></circle><circle r="4" cx="293.3333333333333" cy="500" class="point-goyes station primary" style="fill: rgb(255, 255, 255); stroke: rgb(68, 68, 68); stroke-width: 2;"></circle><circle r="4" cx="293.3333333333333" cy="550" class="point-goyes station primary" style="fill: rgb(255, 255, 255); stroke: rgb(68, 68, 68); stroke-width: 2;"></circle><circle r="4" cx="293.3333333333333" cy="600" class="point-goyes station primary" style="fill: rgb(255, 255, 255); stroke: rgb(68, 68, 68); stroke-width: 2;"></circle><circle r="4" cx="429.3333333333333" cy="300" class="point-outda station primary" style="fill: rgb(255, 255, 255); stroke: rgb(68, 68, 68); stroke-width: 2;"></circle><circle r="4" cx="318.66666666666663" cy="350" class="point-outda station secondary" style="fill: rgb(255, 255, 255); stroke: rgb(68, 68, 68); stroke-width: 2;"></circle><circle r="4" cx="318.66666666666663" cy="400" class="point-outda station secondary" style="fill: rgb(255, 255, 255); stroke: rgb(68, 68, 68); stroke-width: 2;"></circle><circle r="4" cx="548.0987654320987" cy="700" class="point-outda station primary" style="fill: rgb(255, 255, 255); stroke: rgb(68, 68, 68); stroke-width: 2;"></circle><circle r="4" cx="305.3333333333333" cy="600" class="point-rialy station secondary" style="fill: rgb(255, 255, 255); stroke: rgb(68, 68, 68); stroke-width: 2;"></circle><circle r="4" cx="305.3333333333333" cy="650" class="point-rialy station primary" style="fill: rgb(255, 255, 255); stroke: rgb(68, 68, 68); stroke-width: 2;"></circle><circle r="4" cx="560.0987654320987" cy="700" class="point-rialy station secondary" style="fill: rgb(255, 255, 255); stroke: rgb(68, 68, 68); stroke-width: 2;"></circle><circle r="4" cx="517.3827160493827" cy="750" class="point-rialy station secondary" style="fill: rgb(255, 255, 255); stroke: rgb(68, 68, 68); stroke-width: 2;"></circle><circle r="10" cx="200" cy="170" class="point-lista end-line symbol" style="fill: rgb(229, 48, 60); stroke: rgb(229, 48, 60); stroke-width: 2;"></circle><circle r="10" cx="505.3827160493827" cy="780" class="point-lista end-line symbol" style="fill: rgb(229, 48, 60); stroke: rgb(229, 48, 60); stroke-width: 2;"></circle><circle r="10" cx="212" cy="140" class="point-goyes end-line symbol" style="fill: rgb(246, 128, 44); stroke: rgb(246, 128, 44); stroke-width: 2;"></circle><circle r="10" cx="293.3333333333333" cy="630" class="point-goyes end-line symbol" style="fill: rgb(246, 128, 44); stroke: rgb(246, 128, 44); stroke-width: 2;"></circle><circle r="10" cx="429.3333333333333" cy="270" class="point-outda end-line symbol" style="fill: rgb(254, 201, 26); stroke: rgb(254, 201, 26); stroke-width: 2;"></circle><circle r="10" cx="548.0987654320987" cy="730" class="point-outda end-line symbol" style="fill: rgb(254, 201, 26); stroke: rgb(254, 201, 26); stroke-width: 2;"></circle><circle r="10" cx="305.3333333333333" cy="540" class="point-rialy end-line symbol" style="fill: rgb(69, 168, 68); stroke: rgb(69, 168, 68); stroke-width: 2;"></circle><circle r="10" cx="517.3827160493827" cy="810" class="point-rialy end-line symbol" style="fill: rgb(69, 168, 68); stroke: rgb(69, 168, 68); stroke-width: 2;"></circle><circle r="10" cx="730" cy="290" class="point-lista legend" style="fill: rgb(229, 48, 60); stroke: rgb(229, 48, 60); stroke-width: 2;"></circle><circle r="4" cx="780" cy="290" class="point-lista legend" style="fill: rgb(255, 255, 255); stroke: rgb(68, 68, 68); stroke-width: 2;"></circle><circle r="10" cx="730" cy="320" class="point-goyes legend" style="fill: rgb(246, 128, 44); stroke: rgb(246, 128, 44); stroke-width: 2;"></circle><circle r="4" cx="780" cy="320" class="point-goyes legend" style="fill: rgb(255, 255, 255); stroke: rgb(68, 68, 68); stroke-width: 2;"></circle><circle r="10" cx="730" cy="350" class="point-outda legend" style="fill: rgb(254, 201, 26); stroke: rgb(254, 201, 26); stroke-width: 2;"></circle><circle r="4" cx="780" cy="350" class="point-outda legend" style="fill: rgb(255, 255, 255); stroke: rgb(68, 68, 68); stroke-width: 2;"></circle><circle r="10" cx="730" cy="380" class="point-rialy legend" style="fill: rgb(69, 168, 68); stroke: rgb(69, 168, 68); stroke-width: 2;"></circle><circle r="4" cx="780" cy="380" class="point-rialy legend" style="fill: rgb(255, 255, 255); stroke: rgb(68, 68, 68); stroke-width: 2;"></circle><text class="point-lista station primary" x="190" y="200" text-anchor="end" alignment-baseline="middle" dominant-baseline="middle" font-size="13" style="font-family: OpenSans, sans-serif; font-weight: normal; fill: rgb(0, 0, 0);">Paris</text><text class="point-lista station primary" x="190" y="250" text-anchor="end" alignment-baseline="middle" dominant-baseline="middle" font-size="13" style="font-family: OpenSans, sans-serif; font-weight: normal; fill: rgb(0, 0, 0);">Dijon</text><text class="point-lista station primary" x="296.66666666666663" y="350" text-anchor="end" alignment-baseline="middle" dominant-baseline="middle" font-size="13" style="font-family: OpenSans, sans-serif; font-weight: normal; fill: rgb(0, 0, 0);">Lyon</text><text class="point-lista station primary" x="296.66666666666663" y="400" text-anchor="end" alignment-baseline="middle" dominant-baseline="middle" font-size="13" style="font-family: OpenSans, sans-serif; font-weight: normal; fill: rgb(0, 0, 0);">Montpellier</text><text class="point-lista station primary" x="495.3827160493827" y="750" text-anchor="end" alignment-baseline="middle" dominant-baseline="middle" font-size="13" style="font-family: OpenSans, sans-serif; font-weight: normal; fill: rgb(0, 0, 0);">Marseille</text><text class="point-goyes station primary" x="283.3333333333333" y="450" text-anchor="end" alignment-baseline="middle" dominant-baseline="middle" font-size="13" style="font-family: OpenSans, sans-serif; font-weight: normal; fill: rgb(0, 0, 0);">Rennes</text><text class="point-goyes station primary" x="283.3333333333333" y="500" text-anchor="end" alignment-baseline="middle" dominant-baseline="middle" font-size="13" style="font-family: OpenSans, sans-serif; font-weight: normal; fill: rgb(0, 0, 0);">Nantes</text><text class="point-goyes station primary" x="283.3333333333333" y="550" text-anchor="end" alignment-baseline="middle" dominant-baseline="middle" font-size="13" style="font-family: OpenSans, sans-serif; font-weight: normal; fill: rgb(0, 0, 0);">Bordeaux</text><text class="point-goyes station primary" x="283.3333333333333" y="600" text-anchor="end" alignment-baseline="middle" dominant-baseline="middle" font-size="13" style="font-family: OpenSans, sans-serif; font-weight: normal; fill: rgb(0, 0, 0);">Bayonne</text><text class="point-outda station primary" x="419.3333333333333" y="300" text-anchor="end" alignment-baseline="middle" dominant-baseline="middle" font-size="13" style="font-family: OpenSans, sans-serif; font-weight: normal; fill: rgb(0, 0, 0);">Annecy</text><text class="point-outda station primary" x="538.0987654320987" y="700" text-anchor="end" alignment-baseline="middle" dominant-baseline="middle" font-size="13" style="font-family: OpenSans, sans-serif; font-weight: normal; fill: rgb(0, 0, 0);">Toulouse</text><text class="point-rialy station primary" x="295.3333333333333" y="650" text-anchor="end" alignment-baseline="middle" dominant-baseline="middle" font-size="13" style="font-family: OpenSans, sans-serif; font-weight: normal; fill: rgb(0, 0, 0);">Pau</text><text class="point-lista end-line symbol" x="200" y="171" text-anchor="middle" alignment-baseline="middle" dominant-baseline="middle" font-size="14" style="font-family: OpenSans, sans-serif; font-weight: normal; fill: rgb(255, 255, 255);">L</text><text class="point-lista end-line symbol" x="505.3827160493827" y="781" text-anchor="middle" alignment-baseline="middle" dominant-baseline="middle" font-size="14" style="font-family: OpenSans, sans-serif; font-weight: normal; fill: rgb(255, 255, 255);">L</text><text class="point-goyes end-line symbol" x="212" y="141" text-anchor="middle" alignment-baseline="middle" dominant-baseline="middle" font-size="14" style="font-family: OpenSans, sans-serif; font-weight: normal; fill: rgb(255, 255, 255);">G</text><text class="point-goyes end-line symbol" x="293.3333333333333" y="631" text-anchor="middle" alignment-baseline="middle" dominant-baseline="middle" font-size="14" style="font-family: OpenSans, sans-serif; font-weight: normal; fill: rgb(255, 255, 255);">G</text><text class="point-outda end-line symbol" x="429.3333333333333" y="271" text-anchor="middle" alignment-baseline="middle" dominant-baseline="middle" font-size="14" style="font-family: OpenSans, sans-serif; font-weight: normal; fill: rgb(255, 255, 255);">O</text><text class="point-outda end-line symbol" x="548.0987654320987" y="731" text-anchor="middle" alignment-baseline="middle" dominant-baseline="middle" font-size="14" style="font-family: OpenSans, sans-serif; font-weight: normal; fill: rgb(255, 255, 255);">O</text><text class="point-rialy end-line symbol" x="305.3333333333333" y="541" text-anchor="middle" alignment-baseline="middle" dominant-baseline="middle" font-size="14" style="font-family: OpenSans, sans-serif; font-weight: normal; fill: rgb(255, 255, 255);">R</text><text class="point-rialy end-line symbol" x="517.3827160493827" y="811" text-anchor="middle" alignment-baseline="middle" dominant-baseline="middle" font-size="14" style="font-family: OpenSans, sans-serif; font-weight: normal; fill: rgb(255, 255, 255);">R</text><text class="" x="720" y="240" text-anchor="start" alignment-baseline="middle" dominant-baseline="middle" font-size="24" style="font-family: OpenSans, sans-serif; font-weight: normal; fill: rgb(0, 0, 0);"> Les lignes Traincker</text><text class="point-lista legend" x="730" y="291" text-anchor="middle" alignment-baseline="middle" dominant-baseline="middle" font-size="14" style="font-family: OpenSans, sans-serif; font-weight: normal; fill: rgb(255, 255, 255);">L</text><text class="point-lista legend" x="840" y="290" text-anchor="start" alignment-baseline="middle" dominant-baseline="middle" font-size="14" style="font-family: OpenSans, sans-serif; font-weight: normal; fill: rgb(0, 0, 0);">Lista Line</text><text class="point-goyes legend" x="730" y="321" text-anchor="middle" alignment-baseline="middle" dominant-baseline="middle" font-size="14" style="font-family: OpenSans, sans-serif; font-weight: normal; fill: rgb(255, 255, 255);">G</text><text class="point-goyes legend" x="840" y="320" text-anchor="start" alignment-baseline="middle" dominant-baseline="middle" font-size="14" style="font-family: OpenSans, sans-serif; font-weight: normal; fill: rgb(0, 0, 0);">Goyes Line</text><text class="point-outda legend" x="730" y="351" text-anchor="middle" alignment-baseline="middle" dominant-baseline="middle" font-size="14" style="font-family: OpenSans, sans-serif; font-weight: normal; fill: rgb(255, 255, 255);">O</text><text class="point-outda legend" x="840" y="350" text-anchor="start" alignment-baseline="middle" dominant-baseline="middle" font-size="14" style="font-family: OpenSans, sans-serif; font-weight: normal; fill: rgb(0, 0, 0);">Outda Line</text><text class="point-rialy legend" x="730" y="381" text-anchor="middle" alignment-baseline="middle" dominant-baseline="middle" font-size="14" style="font-family: OpenSans, sans-serif; font-weight: normal; fill: rgb(255, 255, 255);">R</text><text class="point-rialy legend" x="840" y="380" text-anchor="start" alignment-baseline="middle" dominant-baseline="middle" font-size="14" style="font-family: OpenSans, sans-serif; font-weight: normal; fill: rgb(0, 0, 0);">Rialy Line</text></svg>